<?xml version="1.0" encoding="UTF-8"?>
<mxfile host="app.diagrams.net">
  <diagram name="Inventory Management Process" id="U4M_2qA3BqBdsxIEO7YH">
    <mxGraphModel dx="1242" dy="715" grid="1" gridSize="10" guides="1" tooltips="1" connect="1" arrows="1" fold="1" page="1" pageScale="1" pageWidth="827" pageHeight="1169" math="0" shadow="0">
      <root>
        <mxCell id="0"/>
        <mxCell id="1" parent="0"/>

        <!-- Swimlane Headers -->
        <mxCell id="employeeLane" value="Employee" style="swimlane" vertex="1" parent="1">
          <mxGeometry x="0" y="0" width="200" height="600" as="geometry"/>
        </mxCell>
        <mxCell id="systemLane" value="System" style="swimlane" vertex="1" parent="1">
          <mxGeometry x="200" y="0" width="200" height="600" as="geometry"/>
        </mxCell>
        <mxCell id="managerLane" value="Manager" style="swimlane" vertex="1" parent="1">
          <mxGeometry x="400" y="0" width="200" height="600" as="geometry"/>
        </mxCell>
        <mxCell id="supplierLane" value="Supplier" style="swimlane" vertex="1" parent="1">
          <mxGeometry x="600" y="0" width="200" height="600" as="geometry"/>
        </mxCell>

        <!-- Flow Steps -->
        <mxCell id="start" value="Start" style="ellipse;fillColor=#d5f5e3" vertex="1" parent="1">
          <mxGeometry x="50" y="40" width="80" height="40" as="geometry"/>
        </mxCell>
        <mxCell id="scanSale" value="Scan &amp; record sale" style="rounded=1;fillColor=#ffffff" vertex="1" parent="1">
          <mxGeometry x="50" y="100" width="140" height="40" as="geometry"/>
        </mxCell>
        <mxCell id="checkStock" value="Is stock below threshold?" style="rhombus;fillColor=#ffffff" vertex="1" parent="1">
          <mxGeometry x="250" y="160" width="160" height="60" as="geometry"/>
        </mxCell>
        <mxCell id="updateStock" value="Update inventory" style="rounded=1;fillColor=#ffffff" vertex="1" parent="1">
          <mxGeometry x="250" y="240" width="140" height="40" as="geometry"/>
        </mxCell>
        <mxCell id="sendAlert" value="Send alert to manager" style="rounded=1;fillColor=#f9e79f" vertex="1" parent="1">
          <mxGeometry x="250" y="320" width="160" height="40" as="geometry"/>
        </mxCell>
        <mxCell id="reviewApprove" value="Review stock &amp; approve order" style="rounded=1;fillColor=#fcf3cf" vertex="1" parent="1">
          <mxGeometry x="450" y="380" width="180" height="40" as="geometry"/>
        </mxCell>
        <mxCell id="sendOrder" value="Send order to supplier" style="rounded=1;fillColor=#fce4ec" vertex="1" parent="1">
          <mxGeometry x="450" y="440" width="160" height="40" as="geometry"/>
        </mxCell>
        <mxCell id="deliverGoods" value="Deliver goods" style="rounded=1;fillColor=#e8daef" vertex="1" parent="1">
          <mxGeometry x="650" y="500" width="140" height="40" as="geometry"/>
        </mxCell>
        <mxCell id="updateAfterDelivery" value="Update inventory after delivery" style="rounded=1;fillColor=#ffffff" vertex="1" parent="1">
          <mxGeometry x="250" y="560" width="200" height="40" as="geometry"/>
        </mxCell>
        <mxCell id="end" value="End" style="ellipse;fillColor=#f5b7b1" vertex="1" parent="1">
          <mxGeometry x="50" y="620" width="80" height="40" as="geometry"/>
        </mxCell>

        <!-- Connections -->
        <mxCell id="e1" style="edgeStyle=orthogonalEdgeStyle;endArrow=block" edge="1" parent="1" source="start" target="scanSale">
          <mxGeometry relative="1" as="geometry"/>
        </mxCell>
        <mxCell id="e2" style="edgeStyle=orthogonalEdgeStyle;endArrow=block" edge="1" parent="1" source="scanSale" target="checkStock">
          <mxGeometry relative="1" as="geometry"/>
        </mxCell>
        <mxCell id="e3" style="edgeStyle=orthogonalEdgeStyle;endArrow=block" edge="1" parent="1" source="checkStock" target="updateStock">
          <mxGeometry relative="1" as="geometry"/>
        </mxCell>
        <mxCell id="e4" style="edgeStyle=orthogonalEdgeStyle;endArrow=block" edge="1" parent="1" source="checkStock" target="sendAlert">
          <mxGeometry relative="1" as="geometry"/>
        </mxCell>
        <mxCell id="e5" style="edgeStyle=orthogonalEdgeStyle;endArrow=block" edge="1" parent="1" source="sendAlert" target="reviewApprove">
          <mxGeometry relative="1" as="geometry"/>
        </mxCell>
        <mxCell id="e6" style="edgeStyle=orthogonalEdgeStyle;endArrow=block" edge="1" parent="1" source="reviewApprove" target="sendOrder">
          <mxGeometry relative="1" as="geometry"/>
        </mxCell>
        <mxCell id="e7" style="edgeStyle=orthogonalEdgeStyle;endArrow=block" edge="1" parent="1" source="sendOrder" target="deliverGoods">
          <mxGeometry relative="1" as="geometry"/>
        </mxCell>
        <mxCell id="e8" style="edgeStyle=orthogonalEdgeStyle;endArrow=block" edge="1" parent="1" source="deliverGoods" target="updateAfterDelivery">
          <mxGeometry relative="1" as="geometry"/>
        </mxCell>
        <mxCell id="e9" style="edgeStyle=orthogonalEdgeStyle;endArrow=block" edge="1" parent="1" source="updateStock" target="end">
          <mxGeometry relative="1" as="geometry"/>
        </mxCell>
        <mxCell id="e10" style="edgeStyle=orthogonalEdgeStyle;endArrow=block" edge="1" parent="1" source="updateAfterDelivery" target="end">
          <mxGeometry relative="1" as="geometry"/>
        </mxCell>

      </root>
    </mxGraphModel>
  </diagram>
</mxfile>
